<?xml version="1.0" encoding="UTF-8" standalone="no"?>
<svg
   xmlns:dc="http://purl.org/dc/elements/1.1/"
   xmlns:cc="http://creativecommons.org/ns#"
   xmlns:rdf="http://www.w3.org/1999/02/22-rdf-syntax-ns#"
   xmlns:svg="http://www.w3.org/2000/svg"
   xmlns="http://www.w3.org/2000/svg"
   viewBox="0 0 572.12 130.39999"
   height="16"
   width="16"
   xml:space="preserve"
   id="svg2"
   version="1.1"><metadata
     id="metadata8"><rdf:RDF><cc:Work
         rdf:about=""><dc:format>image/svg+xml</dc:format><dc:type
           rdf:resource="http://purl.org/dc/dcmitype/StillImage" /></cc:Work></rdf:RDF></metadata><defs
     id="defs6" /><g
     id="g10"><g
       transform="scale(0.5)"
       id="g12"><path
         id="path14"
         style="fill:#100f0d;fill-opacity:1;fill-rule:nonzero;stroke:none"
         d="M 243.801,672.387 C 199.102,717.09 154.969,761.223 110.797,805.391 53.8398,739.277 48.9531,614.883 110.672,539.258 c 44.723,44.722 88.547,88.547 133.129,133.129 z M 466.203,178.52 c 2.117,-2.114 4.719,-3.743 7.074,-5.579 60.528,71.211 58.399,198.204 -0.164,265.493 C 429.129,394.453 385.184,350.508 339.664,304.988 382.477,262.176 424.313,220.32 466.203,178.52 Z M 292.051,353.688 c 45.117,45.117 89.683,89.687 135.117,135.121 -45.039,45.039 -89.902,89.902 -135.445,135.445 -44.875,-44.875 -89.465,-89.469 -135.118,-135.121 45.5,-45.496 90.114,-90.11 135.446,-135.445 z M 452.293,832.613 C 368.285,916.637 236.18,916.445 158.867,854.324 263.574,749.617 368.199,644.992 473.758,539.438 c 60.711,73.738 63.984,207.707 -21.465,293.175 z M 110.527,438.254 C 56.3984,376.566 40.3359,247.813 120.824,156.848 214.945,50.4727 357.801,67.1719 424.719,124.063 319.344,229.441 214.957,333.828 110.527,438.254 Z M 475.379,78.2461 C 378.313,-0.160156 229.68,-14.3555 113.656,73.8398 60.0273,114.605 24.4922,168.832 8.83203,234.785 -13.332,328.121 6.69141,412.965 63.5586,488.82 -33.6328,614.793 -19.1406,794.57 107.316,898.77 221.012,992.449 383.441,983.363 487.953,889.23 585.918,800.996 626.621,631.41 520.793,489.422 623.035,355.77 594.594,174.543 475.379,78.2461" /><path
         id="path16"
/></g></g></svg>