<svg  viewBox="0 0 230 230" fill="none" xmlns="http://www.w3.org/2000/svg">
<path d="M167.831 172.02H119.451V231.621H167.831V172.02Z" fill="#FDEA6B"/>
<path fill-rule="evenodd" clip-rule="evenodd" d="M105.339 113.723C110.555 109.751 123.647 107.964 129.214 111.789C134.711 115.631 135.31 121.843 137.872 127.557C140.289 126.417 144.281 128.05 144.982 130.294C145.851 131.352 145.89 134.325 146.489 135.747C172.569 139.9 176.528 160.24 179.667 183.332C183.82 206.764 193.247 230.145 189.154 254.257C189.687 255.029 190.108 255.78 190.497 256.671C191.428 258.256 190.228 260.501 188.349 260.414C185.918 260.2 183.51 259.908 181.066 259.817C174.293 259.582 167.514 259.61 160.738 259.696L159.814 259.708C125.666 260.133 91.52 260.971 57.371 261.194C56.1322 261.195 55.5257 260.084 55.6911 258.987C56.0243 256.78 56.3334 254.571 56.656 252.363C48.5788 254.497 39.992 255.034 31.9377 252.587C31.3742 252.013 33.2505 252.324 33.5482 252.237C26.1356 247.17 28.3493 236.495 29.0059 228.807C33.0889 202.462 34.5282 173.313 50.3034 150.832C57.128 141.658 67.133 134.394 78.63 132.76L78.949 132.716C82.311 132.267 86.058 132.123 88.997 130.294C92.303 127.653 93.711 122.775 97.189 122.73C98.337 122.715 99.9 124.168 101.581 125.155C101.706 122.984 102.876 121.152 103.134 119.469L103.155 119.325C103.424 117.363 103.055 115.598 105.339 113.723ZM161.386 184.028C154.057 178.935 135.125 181.494 134.692 181.779C133.737 182.407 133.326 182.463 132.81 183.278C132.301 183.346 131.791 183.416 131.283 183.488C130.262 183.822 131.018 185.077 132.197 184.629C131.488 187.688 133.575 189.864 134.406 192.888C134.675 193.87 134.415 195.636 134.406 196.64C134.486 197.919 135.9 199.43 135.664 200.714C134.827 205.276 130.281 209.727 132.197 214.152C133.467 216.652 137.286 217.926 139.825 218.776C145.085 220.795 154.251 218.7 157.307 214.152C158.938 211.727 160.826 205.609 161.798 203.711L162.014 200.701C162.545 193.218 163.018 185.162 161.386 184.028Z" fill="#FFDBB4"/>
<path fill-rule="evenodd" clip-rule="evenodd" d="M96.918 122.743L99.015 124.031L111.197 130.055C113.558 130.716 114.739 131.509 114.739 132.433V141.842C114.739 143.101 116.955 145.955 121.387 150.403L125.482 146.32L125.39 145.785C125.001 143.481 124.806 141.94 124.806 141.162C124.806 140.325 128.812 137.147 136.824 131.629L140.329 128.327L139.955 127.19C142.117 127.293 144.46 128.624 144.982 130.294C145.851 131.352 145.89 134.325 146.489 135.748C172.569 139.9 176.528 160.24 179.667 183.332C183.82 206.764 193.247 230.145 189.154 254.258C189.687 255.029 190.108 255.78 190.497 256.671C191.428 258.256 190.228 260.501 188.349 260.414C185.918 260.2 183.51 259.908 181.066 259.817C174.293 259.582 167.514 259.61 160.738 259.696L159.814 259.708C125.666 260.133 91.52 260.972 57.371 261.194C56.1322 261.196 55.5257 260.084 55.6911 258.988C56.0243 256.78 56.3334 254.571 56.656 252.363C48.5788 254.497 39.992 255.034 31.9377 252.587C31.3742 252.013 33.2505 252.324 33.5482 252.237C26.1356 247.17 28.3493 236.495 29.0059 228.807C33.0889 202.462 34.5282 173.313 50.3034 150.832C57.128 141.658 67.133 134.394 78.63 132.76L78.949 132.716L79.271 132.674C82.548 132.257 86.151 132.065 88.997 130.294C92.215 127.723 93.636 123.031 96.918 122.743ZM126.106 177.97C124.911 177.97 122.464 179.826 118.765 183.539L118.439 183.689C113.968 185.767 111.006 187.569 109.553 189.096L109.501 189.152C108.033 190.727 105.126 194.916 100.781 201.718L94.488 205.441H92.107L90.412 217.743L94.488 226.526L103.721 223.415L118.765 219.448L127.398 210.686L132.268 209.051C131.677 210.758 131.463 212.457 132.197 214.153C133.467 216.652 137.286 217.926 139.825 218.776C145.085 220.795 154.251 218.7 157.307 214.153C158.937 211.727 160.826 205.609 161.798 203.711L162.077 199.801C162.579 192.584 162.952 185.117 161.386 184.028C154.057 178.935 135.125 181.494 134.691 181.779C133.737 182.407 133.326 182.463 132.81 183.278L132.543 183.314L134.045 181.275L133.513 180.991C129.717 178.977 127.248 177.97 126.106 177.97ZM132.197 184.629C131.518 187.558 133.402 189.677 134.293 192.506L132.017 188.147V184.686C132.076 184.671 132.136 184.653 132.197 184.629Z" fill="#9DDADB"/>
<path fill-rule="evenodd" clip-rule="evenodd" d="M95.912 122.288C96.418 121.84 97.167 122.403 96.845 123.009C96.123 124.37 95.382 125.659 94.412 126.862C93.824 127.592 93.194 128.282 92.556 128.964C94.194 130.381 95.599 132.141 96.925 133.791C98.621 135.9 100.225 138.099 102.129 140.029C104.007 141.933 106.084 143.264 108.594 144.151L109.101 144.327C111.624 145.213 114.319 146.409 115.741 148.798C116.021 149.269 115.457 149.851 114.982 149.557C112.512 148.027 109.609 147.719 106.92 146.708C104.323 145.732 102.058 144.229 100.058 142.31C98.06 140.395 96.383 138.216 94.634 136.083C92.904 133.974 91.042 132.172 88.995 130.388C85.838 132.513 82.234 133.438 78.569 134.346L78.169 134.445C74.5 135.354 70.85 136.409 67.408 137.992C64.372 139.387 61.387 141.053 58.915 143.323C56.2906 145.733 54.2481 148.81 52.3786 151.819C48.1967 158.552 45.2567 165.928 42.6685 173.394C39.9765 181.159 37.7248 189.08 35.9071 197.095C34.9826 201.172 34.2317 205.278 33.6146 209.413C33.3176 211.404 33.0537 213.4 32.822 215.4C32.5746 217.536 32.5177 219.733 31.8628 221.786C31.582 222.666 30.9191 223.032 30.2555 223L30.1207 224.687C29.942 226.935 29.7754 229.184 29.7191 231.446C29.6257 235.208 29.668 238.959 29.9385 242.712L29.9768 243.224C30.1894 245.964 30.6643 249.042 32.7235 251.048C34.856 253.126 38.1356 253.779 41.0098 253.816C47.7043 253.903 54.1484 250.739 60.072 247.963C66.173 245.104 72.108 241.931 77.9 238.489C80.849 236.736 83.767 234.925 86.648 233.061C88.061 232.146 89.465 231.216 90.858 230.271C91.656 229.729 92.412 229.136 93.225 228.655C92.827 228.284 92.649 227.702 92.982 227.193C90.634 225.153 89.657 221.515 89.542 218.57C89.45 216.194 89.8 213.824 90.076 211.47C90.215 210.282 90.387 209.097 90.565 207.916C90.636 207.449 90.69 206.949 90.772 206.456C84.431 209.942 77.913 213.047 71.222 215.804C67.792 217.218 64.319 218.489 60.797 219.654L60.083 219.889C56.7464 220.982 53.3299 222.014 49.8803 222.638C49.6959 222.672 49.5461 222.399 49.743 222.313C53.1047 220.829 56.5828 219.577 59.995 218.21L60.556 217.982C60.491 217.978 60.424 217.969 60.355 217.953C58.354 217.47 56.3682 216.725 54.4055 216.098C52.5839 215.516 50.5374 215.151 48.8348 214.273C48.7038 214.205 48.7771 214.023 48.9047 214.014C50.8184 213.881 52.8958 214.439 54.772 214.768L55.4769 214.891C56.6577 215.099 57.865 215.323 59.04 215.615C59.082 215.222 59.302 214.826 59.615 214.594C63.058 212.043 62.708 206.892 63.077 203.093L63.35 200.272C63.83 195.336 64.338 190.4 65.11 185.501C65.151 185.24 65.556 185.315 65.557 185.562C65.597 191.635 65.139 197.68 64.909 203.743L64.874 204.738C64.747 208.48 64.647 212.365 62.292 215.244C62.621 215.051 63.066 215.051 63.333 215.369C63.661 215.759 63.85 216.197 63.844 216.627C65.973 215.735 68.092 214.819 70.201 213.884C76.981 210.879 83.619 207.516 90.082 203.878C90.777 203.486 91.438 203.794 91.782 204.31L91.832 204.303C91.84 204.302 91.849 204.301 91.857 204.301L91.907 204.299C91.908 204.299 91.91 204.299 91.912 204.299C92.822 203.799 94.061 204.155 94.842 204.884C94.865 204.906 94.884 204.93 94.905 204.953C95.893 204.509 96.816 203.91 97.653 203.151C99.367 201.597 100.819 199.676 102.084 197.749C104.415 194.2 106.394 190.254 109.543 187.333C112.1 184.96 115.271 183.482 118.598 182.555C118.584 182.458 118.622 182.354 118.689 182.285C118.86 182.11 118.982 182.049 119.202 182.156C119.22 182.164 119.23 182.176 119.238 182.189L119.562 181.634C119.739 181.333 119.921 181.029 119.984 180.95C120.362 180.474 120.751 180.002 121.146 179.54C121.815 178.757 122.577 177.985 123.46 177.442C125.393 176.254 127.425 176.926 129.413 177.576C130.614 177.968 131.81 178.373 133.009 178.772L133.133 178.812C134.027 179.099 135.073 179.351 135.472 180.298C135.63 180.673 135.655 181.062 135.581 181.439C144.071 179.28 153.5 180.272 161.785 182.807C162.103 182.905 162.42 183.166 162.487 183.51C163.436 188.38 163.859 193.374 163.429 198.326C163.059 202.602 162.112 206.791 160.328 210.705L160.226 210.926C158.549 214.553 155.891 219.025 151.832 220.162C149.381 220.848 146.671 220.444 144.171 220.318C141.742 220.195 139.258 220.178 136.852 219.796C134.709 219.455 132.831 218.494 131.507 216.751C130.364 215.247 129.763 213.429 129.27 211.621C129.044 211.693 128.82 211.77 128.599 211.856C127.668 212.22 126.879 212.807 126.166 213.498C124.66 214.957 123.492 216.729 121.916 218.121C120.489 219.382 118.864 220.362 117.12 221.116C113.507 222.678 109.631 223.302 105.81 224.129L105.543 224.187C102.666 224.819 99.73 225.594 97.19 227.093C97.14 227.534 96.94 227.949 96.618 228.221C97.065 228.642 97.255 229.308 96.862 229.933C95.762 231.679 93.868 232.672 92.168 233.788L92.058 233.861C90.385 234.97 88.698 236.057 86.998 237.122C83.54 239.288 80.011 241.334 76.431 243.29C70.674 246.437 64.793 249.405 58.806 252.097C59.165 253.866 59.034 255.689 59.304 257.47L59.345 257.724C59.461 258.385 59.305 258.937 58.85 259.369L58.802 259.413L58.803 259.407L58.76 259.447L58.746 259.459L58.75 259.455C58.698 259.503 58.644 259.548 58.589 259.586L58.518 259.631C58.08 259.897 57.516 259.894 57.067 259.659L57.016 259.631L56.9299 259.582C56.3371 259.24 55.9283 258.395 56.1742 257.724C56.7786 256.074 57.007 254.312 57.565 252.651L57.122 252.849L56.5387 253.104C50.2265 255.834 43.2149 258.134 36.3372 256.272C33.2984 255.45 30.4581 253.709 28.9376 250.873C27.4414 248.082 27.2299 244.841 27.1505 241.736C27.0525 237.904 27.2578 234.014 27.7629 230.214C28.102 227.664 28.5121 225.066 29.1446 222.542C28.8193 222.255 28.5801 221.843 28.517 221.333C28.2184 218.922 28.7409 216.416 29.0608 214.019C29.3732 211.677 29.7184 209.34 30.1089 207.011C30.8971 202.307 31.8129 197.612 32.8792 192.963C34.7768 184.688 37.2827 176.561 40.2996 168.627L40.5638 167.936C43.3515 160.685 46.5794 153.589 51.074 147.219C53.2241 144.171 55.4969 141.408 58.535 139.212C61.381 137.154 64.592 135.672 67.905 134.54C71.221 133.407 74.63 132.647 78.1 132.175C81.623 131.695 85.342 131.401 88.629 129.955C88.213 129.21 88.57 128.203 89.269 127.74C91.624 126.184 93.802 124.159 95.912 122.288ZM171.293 189.967C171.392 189.817 171.626 189.912 171.583 190.089C170.438 194.783 169.363 199.487 168.661 204.27C167.393 212.904 167.626 221.65 167.73 230.348L167.735 230.797C167.788 235.482 167.862 240.167 168.017 244.85C168.095 247.217 168.25 249.607 168.166 251.975C168.12 253.26 167.778 254.475 167.657 255.744C167.55 256.854 167.645 257.98 167.698 259.092C167.734 259.831 166.643 259.799 166.569 259.092L166.474 258.177C166.351 257.019 166.199 255.868 165.82 254.76C165.364 253.427 165.145 252.118 164.986 250.718C164.744 248.573 164.636 246.407 164.543 244.248L164.479 242.754C164.088 233.728 164.102 224.66 164.734 215.644L164.78 215C165.407 206.478 166.493 197.269 171.293 189.967ZM146.881 136.253C146.581 136.13 146.686 135.678 147.018 135.757L147.62 135.9C152.034 136.958 156.369 138.104 160.489 140.072C164.612 142.042 168.102 144.982 170.876 148.597C176.267 155.625 178.508 164.166 180.277 172.698C182.242 182.18 184.032 191.696 186.015 201.174L186.383 202.94C188.217 211.768 189.95 220.601 191.226 229.533L191.318 230.181C192.605 239.367 193.379 248.87 191.974 258.08C191.697 259.902 188.666 259.448 188.784 257.648C189.127 252.444 189.372 247.267 189.135 242.052C188.898 236.835 188.409 231.641 187.68 226.47C187.066 222.118 186.151 217.82 185.342 213.503L185.215 212.821C184.537 209.149 183.839 205.481 183.142 201.813L182.1 196.32C180.538 188.096 178.946 179.864 177.147 171.692L177.04 171.211C175.28 163.348 172.685 155.112 167.404 148.868C162.045 142.532 154.374 139.341 146.881 136.253ZM127.409 219.652C127.538 219.364 127.989 219.396 128.127 219.652C128.67 220.654 128.731 221.933 128.833 223.065L128.844 223.181C128.975 224.562 129.09 225.948 129.161 227.333C129.295 229.962 129.359 232.587 129.351 235.22C129.343 237.917 129.288 240.612 129.143 243.306L129.104 244.027C128.971 246.368 128.748 248.979 127.636 251.026C127.232 251.77 126.133 251.551 125.899 250.799C125.132 248.335 125.526 245.414 125.723 242.891L125.875 240.922C126.027 238.953 126.171 236.984 126.285 235.012C126.442 232.315 126.571 229.616 126.696 226.918C126.736 226.041 126.78 225.165 126.826 224.288L126.897 222.974C126.958 221.874 126.953 220.668 127.409 219.652ZM41.1803 223.143L41.5198 222.815C42.562 221.795 43.879 220.223 45.4196 220.321C46.034 220.36 46.4255 220.87 46.2981 221.475C46.026 222.767 44.7079 223.438 43.7591 224.227C42.7196 225.091 41.74 226.015 40.7622 226.948C39.8948 227.775 39.0606 228.625 38.2464 229.503L37.942 229.833C37.6502 230.151 35.5719 232.032 35.7966 232.52L35.8089 232.542C35.8714 232.635 35.7672 232.763 35.6635 232.731C34.766 232.447 34.822 231.678 35.1613 230.898C35.8133 229.4 36.955 228.014 37.952 226.735C38.9462 225.458 40.0224 224.27 41.1803 223.143ZM130.661 185.575C129.967 183.934 127.41 183.968 125.959 184.067C122.304 184.314 118.349 185.239 115.097 186.948C111.726 188.719 109.455 191.558 107.423 194.697L107.328 194.845C105.347 197.925 103.439 201.571 100.338 203.689C98.758 204.767 96.914 205.753 94.997 206.179C94.866 206.411 94.652 206.594 94.373 206.661L94.243 206.69C93.697 206.811 92.849 206.944 92.117 206.864C92.121 207.223 92.118 207.579 92.127 207.918C92.152 208.892 92.163 209.869 92.163 210.843C92.164 212.884 92.054 214.928 92.139 216.969C92.215 218.773 92.47 220.659 93.336 222.272C93.971 223.456 94.81 224.239 95.822 224.987C98.312 223.469 101.127 222.543 103.985 221.848C107.441 221.006 110.979 220.445 114.357 219.304C115.982 218.754 117.545 218.036 118.961 217.059C120.464 216.023 121.611 214.62 122.792 213.248L122.977 213.035C124.182 211.652 125.497 210.329 127.201 209.579C128.667 208.934 130.601 208.819 131.883 207.819C132.554 207.296 132.61 206.538 132.681 205.761C131.859 205.878 130.99 205.69 130.171 205.594L129.747 205.544C128.973 205.452 128.216 205.351 127.454 205.154C127.313 205.117 127.313 204.904 127.454 204.867C128.355 204.635 129.248 204.536 130.171 204.427L130.388 204.4C131.223 204.291 132.102 204.125 132.921 204.309C133.068 203.75 133.28 203.215 133.578 202.68C133.996 201.928 134.787 201.076 134.894 200.198C134.926 199.936 134.865 199.626 134.742 199.395L134.699 199.315C134.647 199.222 134.586 199.128 134.496 199.07C134.486 199.082 134.464 199.095 134.419 199.109C133.788 199.308 133.238 198.999 132.946 198.523C131.706 198.677 130.354 198.625 129.191 198.677L128.016 198.734C126.76 198.791 125.447 198.816 124.267 198.563C124.102 198.527 124.053 198.253 124.218 198.182C125.668 197.562 127.428 197.364 128.981 197.125C129.849 196.992 130.723 196.89 131.593 196.773C132.172 196.695 132.787 196.566 133.387 196.535C134.892 194.661 134.081 191.704 131.987 190.897C131.224 191.233 130.538 191.038 129.704 190.966C128.872 190.895 128.038 190.846 127.203 190.85C125.529 190.857 123.755 191.298 122.098 191.108C121.828 191.077 121.578 190.718 121.846 190.499C123.115 189.463 124.933 189.126 126.544 188.905L126.877 188.86C127.417 188.789 128.074 188.686 128.755 188.625C128.909 188.324 129.186 188.097 129.601 188.04C129.724 188.023 129.848 188.014 129.972 188.003L129.97 187.991C130.982 187.942 130.938 186.231 130.661 185.575ZM61.35 217.579C61.333 217.606 61.313 217.633 61.292 217.658L61.26 217.695L61.427 217.628L61.35 217.579ZM148.327 181.908C144.066 181.45 139.799 181.547 135.525 181.67C135.183 182.788 133.993 183.741 132.84 183.777C133.743 185.152 133.836 187.013 133.203 188.471C134.548 189.006 135.706 189.968 136.409 191.338C137.384 193.236 137.256 195.349 136.293 197.103C137.115 197.848 137.6 199.058 137.552 200.198C137.497 201.469 136.74 202.555 136.111 203.607C135.431 204.746 135.408 205.748 135.199 207.023C134.893 208.889 133.635 210.02 132.017 210.727L132.103 211.066C132.52 212.69 133.039 214.405 134.232 215.593C135.766 217.122 138.146 217.107 140.173 217.204L140.271 217.209C142.127 217.302 143.982 217.411 145.838 217.516L147.23 217.594C149.366 217.711 151.418 217.725 153.162 216.313C156.009 214.006 157.961 210.19 159.196 206.811C161.789 199.719 161.82 191.936 160.63 184.549C156.638 183.262 152.496 182.356 148.327 181.908ZM112.89 193.675L112.921 193.677C113.798 193.777 114.401 194.488 114.616 195.331C114.928 196.556 114.775 197.664 115.525 198.77C116.297 199.908 116.771 200.819 116.883 202.224C116.929 202.802 116.908 203.379 117.037 203.945L117.13 204.341C117.229 204.764 117.31 205.171 117.261 205.625C117.216 206.04 117.014 206.362 116.599 206.495C115.247 206.928 114.202 205.93 113.853 204.669C113.551 203.58 113.954 202.282 113.528 201.259C113.292 200.692 112.857 200.218 112.611 199.647C112.367 199.081 112.245 198.49 112.206 197.875C112.132 196.712 113.16 195.314 112.586 194.26C112.464 194.035 112.602 193.668 112.89 193.675ZM94.921 181.67C95.837 181.484 96.876 181.057 97.779 181.412C98.244 181.595 98.473 182.161 98.081 182.555C97.4 183.238 96.41 183.276 95.492 183.437L95.412 183.451C94.327 183.652 93.24 183.843 92.152 184.023C90.104 184.362 88.052 184.662 85.993 184.917C83.877 185.179 81.756 185.412 79.632 185.588L78.81 185.655C77.016 185.799 75.149 185.907 73.388 185.632C73.132 185.592 73.174 185.219 73.388 185.154C75.317 184.57 77.433 184.414 79.426 184.166C81.546 183.903 83.663 183.625 85.773 183.296C87.881 182.966 89.985 182.613 92.082 182.222C93.03 182.046 93.976 181.862 94.921 181.67ZM127.975 179.795C127.171 179.51 126.286 179.089 125.415 179.23C123.913 179.473 122.576 180.937 121.387 181.901L121.984 181.785C125.039 181.198 129.084 180.565 131.649 182.508C131.655 182.497 131.66 182.486 131.668 182.475C131.875 182.16 132.115 181.915 132.376 181.646C132.401 181.622 132.426 181.598 132.449 181.573L132.591 181.423L132.268 181.311C131.576 181.066 130.756 180.75 130.627 180.704L130.618 180.701C129.735 180.402 128.852 180.106 127.975 179.795ZM102.876 115.74C102.75 114.123 105.266 114.136 105.391 115.74C105.663 119.242 104.875 122.711 103.179 125.782C103.167 125.804 103.153 125.824 103.14 125.845C104.201 126.397 105.273 126.927 106.37 127.4C107.772 128.006 109.201 128.557 110.656 129.025C111.972 129.449 113.593 129.616 114.699 130.497C117.032 132.356 116.155 136.212 115.707 138.712L115.637 139.106C115.413 140.392 115.252 141.712 115.794 142.947C116.372 144.265 117.543 145.243 118.587 146.187L118.798 146.378C119.723 147.221 120.781 148.246 121.459 149.389C122.079 148.108 122.923 147.061 123.816 145.882C124.453 145.041 123.999 144.763 123.542 143.942C123.101 143.151 122.886 142.308 123.024 141.405C123.278 139.739 124.609 138.536 125.934 137.631C127.499 136.564 129.246 135.773 130.864 134.78C134.188 132.739 137.425 130.406 140.341 127.815C140.422 127.744 140.561 127.838 140.497 127.935C138.193 131.441 135.492 134.47 132.172 137.042C130.825 138.084 129.411 138.949 127.987 139.858L127.578 140.121C127.006 140.491 126.293 140.987 126.035 141.617C125.775 142.251 126.33 142.73 126.628 143.256C127.576 144.924 127.119 146.481 125.995 147.896L125.943 147.961C124.826 149.338 123.979 150.618 123.575 152.377C122.705 156.156 123.916 160.091 125.184 163.638L125.235 163.778C125.921 165.69 126.65 167.588 127.246 169.53L127.41 170.067C127.95 171.855 128.392 173.617 127.786 175.455C127.58 176.08 126.728 176.228 126.374 175.639C125.126 173.565 124.815 171.069 124.032 168.789C123.269 166.566 122.394 164.384 121.657 162.152C120.708 159.279 120.073 156.186 120.418 153.172C120.408 153.154 120.397 153.138 120.388 153.119L120.147 152.591C119.488 151.16 118.852 149.911 117.655 148.77C116.406 147.58 115.05 146.527 114.067 145.087C111.933 141.959 113.253 138.479 113.511 135.059L113.54 134.639C113.587 133.929 113.613 132.964 113.149 132.472C112.627 131.919 111.404 131.778 110.712 131.533C108.923 130.9 107.161 130.162 105.482 129.276C103.884 128.433 102.336 127.501 100.895 126.41L100.164 125.86C99.012 124.99 97.817 124.04 97.044 122.855C96.955 122.719 97.106 122.499 97.268 122.564C98.557 123.088 99.736 123.921 100.942 124.645C100.961 124.601 100.983 124.556 101.007 124.512C102.5 121.809 103.114 118.814 102.876 115.74ZM144.069 134.258C144.583 132.848 146.925 132.957 146.831 134.632C146.76 135.919 146.214 137.08 145.715 138.248L145.661 138.373C145.146 139.59 144.55 140.733 143.838 141.849C142.477 143.981 140.882 145.96 139.179 147.828C137.635 149.521 135.609 150.557 133.274 150.385C132.29 150.312 131.297 150.062 130.435 149.57C129.411 148.986 128.298 147.232 126.992 147.657C126.866 147.698 126.748 147.513 126.857 147.425C128.365 146.21 130.077 148.094 131.521 148.548C133.697 149.232 135.93 148.476 137.33 146.716C138.792 144.879 140.138 142.822 141.367 140.821C141.991 139.805 142.561 138.751 143.052 137.665C143.549 136.568 143.662 135.376 144.069 134.258ZM140.562 125.584C140.499 125.389 140.74 125.204 140.911 125.315C141.902 125.96 142.761 126.813 143.675 127.561C144.69 128.39 145.711 129.203 146.749 130.003C148.261 131.169 146.507 133.316 145.176 132.042C143.354 130.299 141.358 128.02 140.562 125.584ZM135.121 118.761C135.523 117.208 137.905 117.849 137.558 119.384L137.546 119.43C136.889 121.966 137.825 124.547 139.824 126.191L139.897 126.251C141.161 127.263 139.37 129.032 138.118 128.03C135.386 125.842 134.249 122.125 135.121 118.761Z" fill="black"/>
<path fill-rule="evenodd" clip-rule="evenodd" d="M154.33 41.4448C154.259 38.9175 150.592 37.8681 149.533 40.3711C149.467 40.4381 149.396 40.5026 149.329 40.5603C149.66 40.2752 148.967 40.7469 148.854 40.8053C148.757 40.8551 148.659 40.9001 148.56 40.9466C147.879 34.544 145.566 27.6417 139.589 24.4279C131.252 20.3751 121.619 19.584 112.473 19.9866C107.839 20.2622 102.489 21.0049 98.3731 18.6551C97.0901 17.923 96.0621 16.7705 94.6131 16.318C90.0371 15.0772 87.9621 19.7873 88.5851 23.6607C86.6341 23.6762 84.6981 24.7593 83.8551 26.5427C83.3611 27.5982 83.3691 28.7372 82.9431 29.7964C81.6341 32.4827 79.7621 34.4136 80.8211 37.6705C78.9591 39.7944 80.0201 43.0096 81.5231 45.043C82.2641 46.1006 83.1481 47.116 83.6921 48.2997C84.2191 49.4332 83.4231 50.7774 82.9801 51.8519C79.7031 59.6399 79.8911 68.2167 81.6541 76.34C78.1161 77.879 77.0541 82.689 79.3611 85.718C80.1551 86.789 81.1231 87.186 82.2211 87.845C83.6111 88.612 82.4761 91.683 82.9211 93.166C83.5261 96.787 86.814 99.017 90.066 96.666C92.13 96.353 93.7941 102.372 95.2931 103.883C96.2161 105.1 97.241 106.193 98.355 107.202C101.676 115.767 118.69 120.11 127.103 119.614C135.912 118.69 141.855 111.19 146.803 104.533C149.344 100.987 150.997 97.017 151.598 92.688C152.202 88.336 151.938 83.977 151.529 79.621C150.672 70.3645 149.319 57.0291 148.446 47.6729C151.602 47.4123 154.426 44.7182 154.33 41.4448Z" fill="#FFDBB4"/>
<path fill-rule="evenodd" clip-rule="evenodd" d="M91.401 17.5497C92.014 16.9434 93.018 17.5655 93.683 18.0527L93.83 18.1621L94.251 18.483C95.205 19.2209 96.099 20.0228 97.13 20.661C98.256 21.358 99.478 21.9122 100.72 22.3666C103.127 23.2477 105.717 23.6432 108.27 23.7681C118.713 24.2791 130.868 18.7783 140.346 25.3471C142.593 26.9041 144.143 29.1807 144.944 31.7846C145.846 34.7209 145.537 37.7618 146.275 40.7082C146.596 41.9871 148.803 42.1646 149.05 40.7591L149.066 40.6502L149.259 40.5288L149.335 40.4832C149.414 40.4379 149.45 40.425 149.382 40.4886L149.367 40.5021L149.397 40.4761C149.42 40.4555 149.443 40.4343 149.465 40.4127L149.533 40.3467C150.003 39.2349 150.988 38.824 151.944 38.9321L151.917 38.9982L151.633 39.7334L151.542 39.9641C151.207 40.8062 150.839 41.6033 150.202 42.3249C149.301 43.3459 148.181 44.178 146.919 44.6903C146.659 44.7956 146.698 45.1483 146.985 45.1769C149.804 45.4582 152.98 43.741 154.306 41.1383C154.319 41.23 154.327 41.3241 154.33 41.4204C154.339 41.7374 154.321 42.0491 154.278 42.3536C154.121 42.4121 153.969 42.4989 153.828 42.6164C152.912 43.3792 152.462 44.6259 151.601 45.477C150.699 46.3689 149.592 47.1959 148.389 47.6102C148.37 47.6167 148.355 47.6262 148.341 47.6368C148.25 47.2919 148.154 46.9489 148.045 46.6111C148.001 46.4784 147.825 46.5116 147.812 46.6428C147.788 46.8771 144.48 44.5182 141.932 44.8993C137.143 45.6158 136.038 48.4188 129.157 48.0049C125.798 47.8029 118.706 44.6491 112.502 44.412C106.873 44.1969 96.814 47.4173 94.16 49.273C92.781 50.2378 96.6759 53.4234 95.9709 54.8717C93.9689 58.98 94.7799 64.4148 92.6869 67.6634L92.606 67.7858C91.266 69.7602 92.102 75.014 91.58 76.634C90.638 79.558 89.077 78.277 89.313 78.669C89.387 78.793 89.587 78.713 89.548 78.57C88.904 76.224 87.143 74.453 84.904 73.807C85.001 73.251 84.825 72.5526 84.48 72.0965L84.3389 71.4365L84.209 70.8186C83.909 69.3774 83.64 67.9375 83.496 66.4568C83.279 64.2364 83.272 61.9994 83.414 59.7735C83.601 56.8487 84.201 54.0309 84.862 51.2149L84.933 50.9132L85.453 48.7237C86.751 49.094 88.084 49.3279 89.379 49.444C90.887 49.5788 92.3799 49.5663 93.8609 49.4469C95.1739 53.0219 95.124 57.0927 93.501 60.5842C91.603 64.6686 86.9509 68.5699 88.2279 73.523C88.7849 75.682 92.0429 75.241 92.1199 73.061L92.121 72.9945C92.133 70.8403 92.8639 69.0664 93.8289 67.2149L93.962 66.9619L94.182 66.5492C95.338 64.3834 96.316 62.2462 96.641 59.7824C97.113 56.2032 96.3729 52.5073 94.6049 49.378C100.903 48.7194 106.999 46.2198 113.149 44.8769L113.431 44.8164L113.714 44.758C118.257 43.8395 123.265 43.7311 127.383 46.1289C127.462 46.1746 127.524 46.0602 127.453 46.0091C121.475 41.6868 113.733 42.3003 106.878 43.8235L106.483 43.9123L106.095 44.0013C99.755 45.4693 93.1119 47.6256 86.6309 45.7261C84.9459 45.2324 83.3109 44.4214 81.9929 43.247L81.882 43.148C81.325 42.6434 80.688 41.9903 80.581 41.2243C80.543 40.9546 80.5549 40.7699 80.7139 40.5565C80.8789 40.3341 81.168 40.3352 81.002 40.2549C82.943 41.1929 84.6069 38.4976 82.7839 37.3298L82.655 37.2501C80.322 35.7685 81.487 32.3965 84.164 32.4122L84.3 32.4147C85.816 32.4193 86.2809 30.6245 85.4649 29.574L85.3869 29.4759C83.8789 27.5282 86.4179 25.1789 88.3939 26.28L88.502 26.3423C89.439 26.8622 90.425 26.2834 90.78 25.3652C91.541 23.3952 91.1519 21.3611 91.1069 19.3221L91.1049 19.1892L91.101 18.9674V18.7922L91.102 18.6761C91.112 18.2464 91.168 17.7802 91.401 17.5497ZM148.412 47.9173L148.431 47.9215L148.471 47.9233L148.508 48.3201L148.461 48.1185L148.412 47.9173ZM83.648 48.1809L83.6019 48.0877L83.75 48.1473L83.678 48.2471L83.648 48.1809ZM125.002 36.844C124.845 36.7992 124.731 37.0441 124.887 37.1156C128.766 38.8939 131.707 41.7319 134.003 45.2881C134.22 45.6247 134.549 45.7234 134.926 45.6647C135.112 45.6358 135.216 45.5456 135.315 45.4219L135.34 45.3903L135.415 45.2881C135.579 45.0628 135.557 44.688 135.415 44.4604C133.085 40.7294 129.185 38.0415 125.002 36.844ZM134.233 35.6792C134.062 35.6798 133.971 35.9414 134.102 36.0526C135.215 37.0029 136.303 38.056 137.093 39.2992C137.478 39.9026 137.798 40.5459 138.031 41.2235C138.284 41.9628 138.366 42.7292 138.727 43.4283C139.333 44.6001 140.957 43.9455 141.039 42.8006C141.162 41.0737 139.723 39.1318 138.583 37.955C137.426 36.7607 136.007 35.9371 134.37 35.6965L134.255 35.6806L134.233 35.6792ZM91.4859 34.3273C91.0109 34.2068 90.622 34.8151 90.996 35.1719C93.049 37.1325 95.824 38.0419 98.586 38.439L98.727 38.4588C101.313 38.8143 105.075 39.0159 107.025 36.9068C107.438 36.4603 107.309 35.6043 106.646 35.4663C105.738 35.2772 104.807 35.3469 103.886 35.4606L103.623 35.4941L102.97 35.581C101.68 35.7499 100.386 35.8528 99.084 35.8146C96.477 35.7376 93.9939 34.9637 91.4859 34.3273ZM136.663 28.0886C136.389 27.9827 136.101 28.3594 136.272 28.598C137.059 29.6915 138.001 30.6479 138.807 31.7247C139.615 32.8049 140.29 33.9401 141.247 34.9011C141.76 35.4168 142.634 34.8922 142.452 34.1975C141.766 31.5676 139.154 29.0541 136.663 28.0886ZM95.735 29.2755C95.448 29.1737 95.247 29.5723 95.447 29.7724C98.094 32.4219 102.857 33.8096 106.363 32.2793C107.152 31.9348 106.669 30.8277 105.959 30.784C104.204 30.6755 102.442 30.8789 100.696 30.6113C98.992 30.3498 97.358 29.8515 95.735 29.2755ZM100.185 25.7241C99.8059 25.5658 99.6469 26.1331 99.9259 26.3398C101.424 27.4498 103.262 27.931 105.095 27.5314C105.691 27.4012 105.563 26.4364 104.95 26.4611C103.292 26.5274 101.73 26.3689 100.185 25.7241ZM112.473 19.9622C114.742 19.8623 117.041 19.8359 119.343 19.9145L118.322 20.0505L117.641 20.1396C115.029 20.4772 112.414 20.7628 109.778 20.7512C107.996 20.7434 106.217 20.5995 104.477 20.2474C107.142 20.4085 109.916 20.1142 112.473 19.9622Z" fill="#D6B370"/>
<path fill-rule="evenodd" clip-rule="evenodd" d="M85.521 35.8797C85.518 35.8928 85.522 35.9027 85.525 35.9166C85.526 35.9126 85.526 35.9105 85.527 35.9057C85.525 35.8951 85.523 35.8881 85.521 35.8797Z" fill="#4F66AF"/>
<path fill-rule="evenodd" clip-rule="evenodd" d="M85.52 36.0141C85.508 36.0018 85.492 35.9927 85.475 35.9805C85.475 35.9809 85.475 35.9813 85.474 35.9817C85.49 35.9919 85.504 36.0035 85.52 36.0141Z" fill="#4F66AF"/>
<path fill-rule="evenodd" clip-rule="evenodd" d="M153.828 42.6408C154.864 41.7772 156.498 42.5723 156.146 43.994C155.764 45.5424 154.109 46.6004 152.742 47.2366C151.336 47.8911 149.966 48.0173 148.431 47.9459L148.412 47.9416C148.838 49.6542 149.08 51.4344 149.406 53.1573C149.819 55.3431 150.226 57.53 150.627 59.7179C151.015 61.8326 151.505 63.9501 151.803 66.0755C152.103 68.2209 152.391 70.3678 152.687 72.5139C153.179 76.098 153.577 79.699 153.996 83.293L154.196 84.995C154.616 88.596 154.954 92.202 154.158 95.786C153.412 99.145 151.732 102.278 149.784 105.081C147.876 107.827 145.744 110.467 143.404 112.855C138.891 117.46 133.325 121.149 126.799 121.833C123.989 122.128 120.988 121.8 118.346 120.776L118.17 120.707C115.496 119.649 112.221 117.836 111.525 114.862C111.098 113.038 112.973 111.614 114.617 112.479C115.379 112.881 115.952 113.339 116.577 113.914L116.688 114.016C117.199 114.492 117.396 114.638 117.986 115.01C119.195 115.773 120.102 116.134 121.476 116.481C124.008 117.12 126.742 117.019 129.313 116.263C134.772 114.659 139.007 110.475 142.635 106.279C144.605 104 146.475 101.61 147.917 98.954C149.43 96.168 150.128 93.243 150.086 90.073C150.039 86.496 149.546 82.904 149.222 79.344C148.892 75.715 148.588 72.0865 148.319 68.4519C148.067 65.0434 148.043 61.6196 147.955 58.2006L147.938 57.5596C147.886 55.7445 147.85 53.9288 147.809 52.1133C147.769 50.3031 147.626 48.4698 147.812 46.6672C147.825 46.5359 148.001 46.5028 148.044 46.6355C148.154 46.9732 148.25 47.3162 148.341 47.6612C148.354 47.6506 148.37 47.6411 148.389 47.6345C149.592 47.2203 150.699 46.3933 151.601 45.5014C152.462 44.6503 152.912 43.4035 153.828 42.6408ZM88.036 17.2793C88.791 14.169 92.19 13.4743 94.704 14.9722C95.913 15.6924 96.881 16.7312 98.011 17.5568C99.133 18.3776 100.374 19.0368 101.684 19.5024C104.285 20.4273 107.029 20.7636 109.778 20.7756C116.47 20.805 123.025 18.9198 129.726 19.13C134.911 19.2928 140.415 20.8291 144.176 24.5869C146.203 26.6112 147.508 29.2138 148.208 31.9768C148.536 33.2681 148.78 34.5907 148.972 35.9103L149.019 36.2401C149.127 37.0113 149.3 37.8278 149.316 38.6072C149.33 39.3072 149.154 40.0398 149.058 40.7326C148.856 42.193 146.6 42.0267 146.276 40.7326C145.537 37.7861 145.846 34.7452 144.944 31.809C144.144 29.2051 142.593 26.9284 140.347 25.3714C130.868 18.8027 118.713 24.3035 108.27 23.7924C105.718 23.6675 103.128 23.2721 100.72 22.391C99.479 21.9366 98.256 21.3824 97.131 20.6854C96.099 20.0472 95.206 19.2453 94.251 18.5074L93.83 18.1865C93.176 17.6929 92.062 16.9211 91.401 17.5741C91.114 17.8583 91.097 18.501 91.102 18.9917L91.105 19.2135C91.135 21.297 91.559 23.3767 90.781 25.3896C90.426 26.3077 89.44 26.8866 88.502 26.3667L88.454 26.3388C86.47 25.1558 83.864 27.5329 85.388 29.5003L85.435 29.5598C86.293 30.6043 85.835 32.4437 84.301 32.4391L84.246 32.4381C81.512 32.3526 80.299 35.7779 82.655 37.2745L82.728 37.3193C84.641 38.4671 82.963 41.2267 81.002 40.2792C81.168 40.3595 80.879 40.3585 80.714 40.5808C80.555 40.7943 80.544 40.979 80.581 41.2487C80.696 42.0658 81.413 42.7544 81.993 43.2713C83.312 44.4458 84.947 45.2567 86.632 45.7505C93.38 47.7283 100.303 45.309 106.879 43.8479C113.733 42.3247 121.476 41.7111 127.454 46.0335C127.525 46.0846 127.463 46.1989 127.384 46.1533C123.094 43.6556 117.839 43.8773 113.149 44.9013C107 46.2442 100.904 48.7438 94.606 49.4024C96.374 52.5316 97.114 56.2275 96.641 59.8067C96.316 62.2706 95.338 64.4078 94.183 66.5735L93.962 66.9863C92.932 68.9303 92.135 70.7668 92.122 73.019C92.109 75.256 88.791 75.728 88.229 73.547C86.952 68.5943 91.604 64.6929 93.502 60.6086C95.124 57.1171 95.174 53.0463 93.861 49.4713C92.38 49.5907 90.887 49.6032 89.379 49.4683C88.084 49.3523 86.752 49.1183 85.453 48.748L84.934 50.9376C84.246 53.8541 83.608 56.7686 83.415 59.7979C83.272 62.0238 83.28 64.2607 83.496 66.4812C83.684 68.399 84.079 70.2485 84.481 72.1208C84.826 72.5769 85.002 73.275 84.905 73.831C87.144 74.477 88.905 76.249 89.548 78.594C89.587 78.737 89.388 78.817 89.313 78.694C87.787 76.154 83.856 75.22 81.369 76.898C78.994 78.499 78.058 81.733 79.402 84.293C80.109 85.639 81.157 86.585 82.509 87.236L82.781 87.364C83.489 87.7 84.139 88.066 84.595 88.741C85.186 89.616 85.206 90.542 85.15 91.542L85.126 91.948C85.088 92.618 85.08 93.308 85.279 93.953L85.324 94.097C85.377 94.258 85.432 94.399 85.528 94.553C85.557 94.599 85.826 94.863 85.914 94.959L86.024 94.993L86.148 94.998C86.285 95 86.465 94.94 86.406 94.981L86.422 94.972C86.474 94.94 86.522 94.905 86.562 94.875L86.638 94.815C86.817 94.556 87.042 94.341 87.317 94.178L87.58 94.061C88.263 93.338 89.433 93.718 89.922 94.438C90.274 94.956 90.464 95.482 90.48 96.001C90.535 95.913 90.657 95.864 90.735 95.963L91.199 96.556C92.975 98.831 94.72 101.12 96.738 103.194C97.849 104.336 99.045 105.41 100.295 106.399C101.362 107.243 103.387 108.055 103.418 109.593C103.427 110.093 103.074 110.446 102.641 110.616C101.233 111.167 99.493 109.292 98.476 108.379L98.393 108.305C97.149 107.212 96.013 106.013 94.965 104.73C92.929 102.238 91.226 99.37 90.476 96.214C90.441 96.765 90.205 97.304 89.746 97.814C89.136 98.491 88.3 98.966 87.407 99.162C85.384 99.605 83.409 98.875 82.205 97.186C81.188 95.757 80.889 93.871 81.02 92.145L81.036 91.938C81.054 91.661 81.078 91.153 81.149 90.937L80.513 90.587C79.732 90.17 79.008 89.624 78.358 89.024C75.748 86.611 74.438 82.69 75.631 79.258C76.378 77.112 77.947 75.244 79.955 74.273C79.62 73.496 79.507 72.5718 79.381 71.7545L79.359 71.6193C79.145 70.2785 78.965 68.9208 78.896 67.5639C78.768 65.0298 78.924 62.4721 79.321 59.9674C79.966 55.8991 81.302 51.5846 83.75 48.1717C81.882 47.4282 80.163 46.3518 78.836 44.8571C77.45 43.2952 76.566 41.0591 77.638 39.0756C77.911 38.57 78.267 38.145 78.676 37.8075C77.967 36.4642 77.737 34.8765 78.175 33.359C78.698 31.5448 80.119 30.1298 81.835 29.4691C81.418 27.7502 81.759 25.9013 83.033 24.4688C84.296 23.0476 86.258 22.53 88.073 22.8549C88.172 21.0267 87.598 19.0823 88.036 17.2793ZM82.944 81.466C84.609 80.65 86.581 80.779 88.244 81.553L88.357 81.607C90.172 82.489 92.577 84.551 92 86.744C91.662 88.027 90.24 88.465 89.138 87.911C88.218 87.449 88.008 86.622 87.546 85.791C87.219 85.203 86.815 84.744 86.341 84.272C85.342 83.276 84.219 82.537 82.944 81.945C82.76 81.86 82.766 81.554 82.944 81.466ZM124.887 37.1399C124.731 37.0685 124.844 36.8236 125.001 36.8684C129.184 38.0659 133.084 40.7538 135.415 44.4848C135.557 44.7124 135.579 45.0871 135.415 45.3124L135.339 45.4147C135.232 45.5546 135.127 45.6578 134.926 45.6891C134.548 45.7478 134.22 45.6491 134.002 45.3124C131.707 41.7563 128.765 38.9182 124.887 37.1399ZM152.889 37.8441C153.244 37.2424 154.183 37.3635 154.37 38.0381L154.397 38.0969C154.498 38.3268 154.452 38.3739 154.264 38.2438C154.73 38.6289 154.941 39.2025 154.799 39.8192C154.029 43.1501 150.266 45.5286 146.985 45.2012C146.698 45.1727 146.659 44.8199 146.919 44.7147C148.181 44.2024 149.301 43.3703 150.202 42.3493C151.078 41.3568 151.446 40.2212 151.917 39.0226C152.094 38.5726 152.369 38.2486 152.756 38.0717C152.807 38.0007 152.852 37.9251 152.889 37.8441ZM134.232 35.7036L134.255 35.705C135.941 35.9233 137.399 36.7573 138.583 37.9794C139.723 39.1562 141.162 41.098 141.038 42.825C140.957 43.9699 139.333 44.6244 138.727 43.4527C138.366 42.7535 138.284 41.9872 138.03 41.2479C137.798 40.5703 137.477 39.927 137.093 39.3235C136.302 38.0804 135.215 37.0272 134.101 36.077C133.971 35.9658 134.062 35.7042 134.232 35.7036ZM90.996 35.1962C90.622 34.8395 91.011 34.2312 91.486 34.3517C93.993 34.9881 96.476 35.762 99.083 35.839C100.385 35.8772 101.68 35.7743 102.97 35.6054L103.623 35.5185C104.629 35.3869 105.652 35.2835 106.646 35.4906C107.309 35.6287 107.438 36.4846 107.025 36.9312C105.075 39.0403 101.313 38.8386 98.726 38.4832C95.918 38.0968 93.083 37.1901 90.996 35.1962ZM136.273 28.6223C136.102 28.3837 136.391 28.0071 136.664 28.113C139.156 29.0784 141.767 31.592 142.453 34.2219C142.635 34.9166 141.761 35.4411 141.248 34.9254C140.292 33.9644 139.616 32.8293 138.808 31.7491C138.003 30.6722 137.06 29.7159 136.273 28.6223ZM95.447 29.7968C95.247 29.5967 95.448 29.1981 95.735 29.2999C97.357 29.8759 98.992 30.3742 100.696 30.6357C102.442 30.9032 104.204 30.6999 105.958 30.8083C106.668 30.8521 107.152 31.9591 106.363 32.3036C102.856 33.834 98.094 32.4463 95.447 29.7968ZM99.927 26.3641C99.648 26.1574 99.807 25.5902 100.186 25.7485C101.731 26.3933 103.294 26.5518 104.951 26.4855C105.564 26.4607 105.693 27.4255 105.096 27.5557C103.263 27.9554 101.425 27.4742 99.927 26.3641Z" fill="black"/>
<path fill-rule="evenodd" clip-rule="evenodd" d="M133.02 105.737C131.211 106.232 129.268 106.276 127.423 105.765C125.75 105.301 124.032 104.28 122.8 102.929C121.706 101.729 120.998 100.271 121.026 98.714C121.029 98.537 121.096 98.388 121.2 98.273C121.311 98.149 121.467 98.064 121.634 98.027C121.805 97.989 121.986 98.002 122.141 98.069C122.28 98.129 122.4 98.23 122.475 98.379C122.664 98.614 122.853 98.845 123.042 99.07C124.564 100.845 126.037 102.172 128.326 102.648C129.567 102.906 130.807 102.791 131.945 102.398C133.163 101.976 134.263 101.234 135.126 100.286C135.516 99.857 135.976 99.682 136.426 99.679C136.936 99.676 137.44 99.899 137.82 100.257C138.194 100.609 138.444 101.087 138.466 101.587C138.486 102.026 138.335 102.484 137.931 102.893C136.603 104.24 134.882 105.227 133.02 105.737ZM132.965 83.505C134.82 84.57 137.647 87.054 135.651 89.695C133.302 92.024 129.92 89.354 128.253 88.146C126.707 87.211 124.971 89.617 126.405 90.71C138.449 99.134 143.336 83.784 133.903 82.253C132.865 82.084 132.479 83.176 132.965 83.505ZM115.611 78.818C115.014 78.457 114.313 78.334 113.536 78.668C112.928 78.929 111.863 79.799 111.121 80.942C110.614 81.725 110.254 82.643 110.329 83.599C110.347 83.821 110.26 83.985 110.123 84.106C110.015 84.201 109.858 84.271 109.675 84.293C109.519 84.312 109.344 84.295 109.203 84.253C108.933 84.174 108.79 84.009 108.736 83.874C108.217 82.571 108.441 81.118 109.023 79.806C109.808 78.037 111.234 76.554 112.168 76.076C113.767 75.258 115.653 75.221 117.254 76.054C118.617 76.763 119.469 77.909 120.317 79.076C120.497 79.324 120.676 79.571 120.86 79.813C121.231 80.297 121.268 80.778 121.124 81.191C120.965 81.648 120.56 82.033 120.054 82.235C119.585 82.422 119.042 82.448 118.561 82.256C118.154 82.094 117.782 81.779 117.546 81.243C117.148 80.342 116.486 79.347 115.611 78.818ZM145.893 80.824C145.485 81.025 145.166 81.086 144.713 80.957C144.462 80.886 144.214 80.75 144.021 80.567C143.828 80.385 143.69 80.16 143.636 79.909C143.503 79.292 143.146 78.713 142.636 78.336C142.2 78.014 141.65 77.843 141.039 77.939C140.381 78.043 139.753 78.442 139.321 78.913C139.177 79.07 139.064 79.249 138.95 79.426C138.737 79.758 138.53 80.067 138.236 80.311C138.125 80.404 137.957 80.468 137.795 80.468C137.729 80.468 137.662 80.458 137.598 80.439C136.943 79.817 136.817 79.346 136.838 78.878C136.86 78.388 137.065 77.892 137.395 77.428C138.171 76.342 139.644 75.451 140.638 75.249C141.999 74.973 143.351 75.304 144.435 76.023C145.55 76.762 146.376 77.909 146.634 79.202C146.696 79.513 146.669 79.849 146.544 80.141C146.421 80.426 146.207 80.669 145.893 80.824ZM118.612 67.2327C117.795 67.9846 116.829 68.101 115.851 68.2046C115.307 68.2627 114.873 68.3095 114.446 68.4005C113.273 68.6508 112.113 69.0276 111.055 69.5704C109.949 70.1378 108.743 70.822 107.876 71.6986C107.67 71.9072 107.475 72.1261 107.281 72.3455C107.103 72.5455 106.932 72.7381 106.752 72.9237C106.545 73.137 106.348 73.361 106.153 73.583C106.032 73.772 106.008 73.818 105.984 73.866C105.947 73.938 105.904 74.019 105.856 74.106C105.789 74.225 105.711 74.356 105.629 74.474C105.493 74.69 105.42 74.749 105.357 74.776C105.253 74.82 105.153 74.841 105.057 74.83C104.967 74.819 104.882 74.778 104.798 74.711C104.378 74.376 104.255 73.826 104.267 73.243C104.286 72.3585 104.632 71.3788 104.95 70.7765C105.691 69.3771 106.718 67.9224 107.953 66.8779C109.362 65.6857 110.904 64.7832 112.675 64.1613C113.775 63.7746 115.049 63.4198 116.248 63.4646C117.111 63.4968 117.935 63.7392 118.615 64.3443C119.033 64.7158 119.234 65.2443 119.234 65.7723C119.234 66.3109 119.025 66.8526 118.612 67.2327ZM147.555 74.117C147.503 74.198 147.431 74.253 147.351 74.287C147.267 74.322 147.174 74.332 147.084 74.317C146.994 74.303 146.909 74.265 146.842 74.206C146.777 74.15 146.728 74.076 146.706 73.984C146.164 71.7343 145.111 70.0602 142.863 68.9806C141.757 68.4495 140.486 68.1121 139.282 67.843C138.932 67.7648 138.563 67.7142 138.191 67.6628C137.024 67.5019 135.849 67.3177 135.089 66.427C134.631 65.8905 134.439 65.2044 134.547 64.5769C134.65 63.986 135.015 63.4443 135.68 63.1196C137.334 62.3118 139.389 63.1045 141.059 63.7798C141.183 63.8299 141.305 63.8791 141.424 63.9265C143.057 64.5778 144.547 65.4376 145.771 66.6671C146.743 67.6425 147.643 69.0844 148.006 70.5678C148.308 71.802 148.237 73.062 147.555 74.117Z" fill="black"/>
<path d="M150 88.5C150 91.5 150 94 149.5 94C146.186 94 144 91.314 144 88C144 84.686 146.186 82 149.5 82C149.5 85 150 85.5 150 88.5Z" fill="#F5A897"/>
<path d="M109 99C112.314 99 115 96.3137 115 93C115 89.6863 112.314 87 109 87C105.686 87 103 89.6863 103 93C103 96.3137 105.686 99 109 99Z" fill="#F5A897"/>
</svg>
