<svg viewBox="0 0 80 80" xmlns="http://www.w3.org/2000/svg"><circle cx="40" cy="40" fill="#d5d5d5" r="40"/><path d="m59.79 26.94a16 16 0 0 1 -2 .74 9 9 0 0 0 1.8-3.18.67.67 0 0 0 -1-.78 16 16 0 0 1 -4.59 1.85 8.92 8.92 0 0 0 -15.06 7.51 22.81 22.81 0 0 1 -15.64-8.3.68.68 0 0 0 -1.1.09 9 9 0 0 0 -1.2 4.47 8.85 8.85 0 0 0 2.12 5.77 7.44 7.44 0 0 1 -1.19-.53.7.7 0 0 0 -.66 0 .67.67 0 0 0 -.34.57v.12a8.92 8.92 0 0 0 4.36 7.65 5.31 5.31 0 0 1 -.68-.1.69.69 0 0 0 -.63.22.67.67 0 0 0 -.13.64 8.87 8.87 0 0 0 6.52 6 15.74 15.74 0 0 1 -8.42 2.4 16.79 16.79 0 0 1 -1.95-.14.67.67 0 0 0 -.44 1.23 24 24 0 0 0 13 3.8 23.08 23.08 0 0 0 17.89-7.86 24.89 24.89 0 0 0 6.2-16.23c0-.24 0-.49 0-.73a17.55 17.55 0 0 0 4-4.22.68.68 0 0 0 -.83-1z" fill="#333"/></svg>